<svg width="134" height="37" viewBox="0 0 134 37" fill="none" xmlns="http://www.w3.org/2000/svg">
<path d="M48.86 25.1162C48.66 25.1162 48.5 25.0629 48.38 24.9562C48.26 24.8495 48.1867 24.7029 48.16 24.5162L45.78 11.6962L45.76 11.5362C45.76 11.4162 45.8 11.3162 45.88 11.2362C45.9733 11.1562 46.0733 11.1162 46.18 11.1162H47.94C48.2733 11.1162 48.46 11.2495 48.5 11.5162L50.16 20.5762L51.96 14.7162C52.0933 14.3829 52.3133 14.2162 52.62 14.2162H53.7C54.0333 14.2162 54.2467 14.3829 54.34 14.7162L56.16 20.5562L57.82 11.5162C57.8467 11.3695 57.9 11.2695 57.98 11.2162C58.0733 11.1495 58.2067 11.1162 58.38 11.1162H60.14C60.2467 11.1162 60.34 11.1562 60.42 11.2362C60.5 11.3162 60.54 11.4162 60.54 11.5362C60.54 11.6029 60.5333 11.6562 60.52 11.6962L58.14 24.5162C58.0733 24.9162 57.84 25.1162 57.44 25.1162H56.1C55.9133 25.1162 55.76 25.0695 55.64 24.9762C55.52 24.8829 55.44 24.7629 55.4 24.6162L53.16 17.9362L50.92 24.6162C50.7867 24.9495 50.5467 25.1162 50.2 25.1162H48.86ZM66.7375 25.3162C65.2575 25.3162 64.0775 24.8895 63.1975 24.0362C62.3308 23.1695 61.8708 21.9562 61.8175 20.3962L61.7975 19.8962L61.8175 19.3962C61.8842 17.8762 62.3508 16.6829 63.2175 15.8162C64.0975 14.9495 65.2708 14.5162 66.7375 14.5162C68.3108 14.5162 69.5242 14.9962 70.3775 15.9562C71.2442 16.9162 71.6775 18.1962 71.6775 19.7962V20.2162C71.6775 20.3495 71.6308 20.4629 71.5375 20.5562C71.4442 20.6495 71.3242 20.6962 71.1775 20.6962H64.5375V20.8562C64.5642 21.5895 64.7642 22.2095 65.1375 22.7162C65.5242 23.2095 66.0508 23.4562 66.7175 23.4562C67.5042 23.4562 68.1375 23.1495 68.6175 22.5362C68.7375 22.3895 68.8308 22.2962 68.8975 22.2562C68.9775 22.2162 69.0908 22.1962 69.2375 22.1962H70.9575C71.0775 22.1962 71.1775 22.2362 71.2575 22.3162C71.3508 22.3829 71.3975 22.4695 71.3975 22.5762C71.3975 22.8962 71.2042 23.2762 70.8175 23.7162C70.4442 24.1429 69.9042 24.5162 69.1975 24.8362C68.4908 25.1562 67.6708 25.3162 66.7375 25.3162ZM68.9575 19.0162V18.9562C68.9575 18.1695 68.7575 17.5362 68.3575 17.0562C67.9708 16.5762 67.4308 16.3362 66.7375 16.3362C66.0442 16.3362 65.5042 16.5762 65.1175 17.0562C64.7308 17.5362 64.5375 18.1695 64.5375 18.9562V19.0162H68.9575ZM77.7405 25.3162C76.7405 25.3162 75.9005 25.1695 75.2205 24.8762C74.5405 24.5695 74.0338 24.2162 73.7005 23.8162C73.3805 23.4029 73.2205 23.0495 73.2205 22.7562C73.2205 22.6229 73.2671 22.5162 73.3605 22.4362C73.4538 22.3562 73.5605 22.3162 73.6805 22.3162H75.2605C75.3805 22.3162 75.4805 22.3629 75.5605 22.4562C75.6138 22.4962 75.7538 22.6162 75.9805 22.8162C76.2071 23.0295 76.4738 23.1962 76.7805 23.3162C77.0871 23.4362 77.4271 23.4962 77.8005 23.4962C78.3338 23.4962 78.7738 23.3895 79.1205 23.1762C79.4671 22.9629 79.6405 22.6695 79.6405 22.2962C79.6405 22.0162 79.5605 21.7895 79.4005 21.6162C79.2538 21.4429 78.9805 21.2895 78.5805 21.1562C78.1805 21.0095 77.5871 20.8562 76.8005 20.6962C75.6671 20.4562 74.8271 20.0895 74.2805 19.5962C73.7471 19.1029 73.4805 18.4495 73.4805 17.6362C73.4805 17.1029 73.6405 16.6029 73.9605 16.1362C74.2805 15.6562 74.7538 15.2695 75.3805 14.9762C76.0205 14.6695 76.7805 14.5162 77.6605 14.5162C78.5538 14.5162 79.3271 14.6629 79.9805 14.9562C80.6338 15.2362 81.1271 15.5762 81.4605 15.9762C81.8071 16.3629 81.9805 16.7095 81.9805 17.0162C81.9805 17.1362 81.9338 17.2429 81.8405 17.3362C81.7605 17.4162 81.6605 17.4562 81.5405 17.4562H80.0605C79.9538 17.4562 79.8405 17.4095 79.7205 17.3162C79.6271 17.2495 79.4805 17.1229 79.2805 16.9362C79.0805 16.7495 78.8471 16.6029 78.5805 16.4962C78.3138 16.3895 78.0005 16.3362 77.6405 16.3362C77.1471 16.3362 76.7605 16.4429 76.4805 16.6562C76.2138 16.8695 76.0805 17.1495 76.0805 17.4962C76.0805 17.7495 76.1471 17.9562 76.2805 18.1162C76.4138 18.2762 76.6738 18.4295 77.0605 18.5762C77.4471 18.7229 78.0271 18.8695 78.8005 19.0162C80.0805 19.2695 80.9938 19.6629 81.5405 20.1962C82.1005 20.7295 82.3805 21.3829 82.3805 22.1562C82.3805 23.0895 81.9738 23.8495 81.1605 24.4362C80.3471 25.0229 79.2071 25.3162 77.7405 25.3162ZM89.1059 25.1162C87.8926 25.1162 86.9793 24.8029 86.3659 24.1762C85.7659 23.5362 85.4659 22.6029 85.4659 21.3762V16.8362H83.8859C83.7526 16.8362 83.6393 16.7895 83.5459 16.6962C83.4526 16.5895 83.4059 16.4695 83.4059 16.3362V15.1962C83.4059 15.0629 83.4526 14.9495 83.5459 14.8562C83.6393 14.7629 83.7526 14.7162 83.8859 14.7162H85.4659V11.3962C85.4659 11.2495 85.5126 11.1362 85.6059 11.0562C85.6993 10.9629 85.8126 10.9162 85.9459 10.9162H87.5659C87.7126 10.9162 87.8259 10.9629 87.9059 11.0562C87.9993 11.1362 88.0459 11.2495 88.0459 11.3962V14.7162H90.5459C90.6926 14.7162 90.8059 14.7629 90.8859 14.8562C90.9793 14.9362 91.0259 15.0495 91.0259 15.1962V16.3362C91.0259 16.4829 90.9793 16.6029 90.8859 16.6962C90.7926 16.7895 90.6793 16.8362 90.5459 16.8362H88.0459V21.1762C88.0459 21.7495 88.1459 22.1829 88.3459 22.4762C88.5459 22.7695 88.8793 22.9162 89.3459 22.9162H90.7259C90.8593 22.9162 90.9726 22.9629 91.0659 23.0562C91.1593 23.1495 91.2059 23.2629 91.2059 23.3962V24.6362C91.2059 24.7695 91.1593 24.8829 91.0659 24.9762C90.9859 25.0695 90.8726 25.1162 90.7259 25.1162H89.1059ZM97.0602 25.1162C96.6335 25.1162 96.3602 24.9162 96.2402 24.5162L92.1602 11.7162L92.1202 11.5362C92.1202 11.4295 92.1602 11.3362 92.2402 11.2562C92.3335 11.1629 92.4402 11.1162 92.5602 11.1162H95.0402C95.2268 11.1162 95.3802 11.1695 95.5002 11.2762C95.6335 11.3829 95.7202 11.5029 95.7602 11.6362L98.6002 20.8762L101.42 11.6362C101.46 11.5029 101.54 11.3829 101.66 11.2762C101.793 11.1695 101.953 11.1162 102.14 11.1162H104.64C104.747 11.1162 104.84 11.1629 104.92 11.2562C105.013 11.3362 105.06 11.4295 105.06 11.5362L105.02 11.7162L100.94 24.5162C100.82 24.9162 100.547 25.1162 100.12 25.1162H97.0602ZM107.427 25.1162C107.294 25.1162 107.174 25.0695 107.067 24.9762C106.974 24.8695 106.927 24.7495 106.927 24.6162V11.6162C106.927 11.4695 106.974 11.3495 107.067 11.2562C107.174 11.1629 107.294 11.1162 107.427 11.1162H113.027C114.734 11.1162 116.074 11.5095 117.047 12.2962C118.034 13.0829 118.527 14.2295 118.527 15.7362C118.527 17.2295 118.041 18.3562 117.067 19.1162C116.094 19.8629 114.747 20.2362 113.027 20.2362H110.647V24.6162C110.647 24.7629 110.594 24.8829 110.487 24.9762C110.394 25.0695 110.274 25.1162 110.127 25.1162H107.427ZM112.927 17.4762C113.514 17.4762 113.974 17.3295 114.307 17.0362C114.641 16.7295 114.807 16.2829 114.807 15.6962C114.807 15.1495 114.647 14.7162 114.327 14.3962C114.021 14.0629 113.554 13.8962 112.927 13.8962H110.587V17.4762H112.927ZM120.943 25.1162C120.81 25.1162 120.69 25.0695 120.583 24.9762C120.49 24.8695 120.443 24.7495 120.443 24.6162V11.6162C120.443 11.4695 120.49 11.3495 120.583 11.2562C120.69 11.1629 120.81 11.1162 120.943 11.1162H123.063C123.396 11.1162 123.623 11.2429 123.743 11.4962L128.623 19.1762V11.6162C128.623 11.4695 128.67 11.3495 128.763 11.2562C128.87 11.1629 128.99 11.1162 129.123 11.1162H131.523C131.67 11.1162 131.79 11.1629 131.883 11.2562C131.976 11.3495 132.023 11.4695 132.023 11.6162V24.5962C132.023 24.7429 131.976 24.8695 131.883 24.9762C131.79 25.0695 131.67 25.1162 131.523 25.1162H129.383C129.09 25.1162 128.87 24.9895 128.723 24.7362L123.843 17.3362V24.6162C123.843 24.7495 123.796 24.8695 123.703 24.9762C123.61 25.0695 123.49 25.1162 123.343 25.1162H120.943Z" fill="#0B132A"/>
<path d="M31.1473 13.6477L31.1255 13.626C31.1238 13.6247 31.1224 13.6231 31.1215 13.6212L17.5006 0L3.87983 13.6209C3.87826 13.6225 3.8758 13.6256 3.8758 13.6256L3.85333 13.6474C1.77053 15.7419 0.447586 18.4725 0.0948177 21.4052C-0.25795 24.3379 0.379698 27.3044 1.90639 29.8331C3.43309 32.3619 5.76122 34.3077 8.52069 35.3612C11.2802 36.4147 14.3126 36.5157 17.136 35.6477C17.3735 35.5751 17.6275 35.5751 17.8651 35.6477C20.6882 36.5153 23.7205 36.4144 26.4798 35.3607C29.2391 34.307 31.567 32.3613 33.0936 29.8328C34.6202 27.3042 35.2579 24.3379 34.9053 21.4054C34.5526 18.4728 33.2299 15.7422 31.1473 13.6477ZM8.7232 22.6298C8.65689 22.6961 8.6043 22.7749 8.56844 22.8615C8.53257 22.948 8.5141 23.0408 8.51412 23.1346C8.53835 25.5386 9.21776 27.8904 10.4792 29.9371C10.5079 29.9835 10.5211 30.0379 10.517 30.0922C10.513 30.1465 10.4918 30.1982 10.4566 30.2399C10.4213 30.2816 10.3738 30.311 10.3209 30.324C10.2679 30.337 10.2122 30.333 10.1616 30.3124C9.21332 29.9135 8.35182 29.3336 7.62531 28.6053C6.13646 27.1162 5.29946 25.097 5.2981 22.9912C5.29675 20.8855 6.13117 18.8652 7.61812 17.3743L17.5006 7.49273L27.3826 17.3743C28.8698 18.865 29.7045 20.8853 29.703 22.9912C29.7018 25.097 28.8647 27.1162 27.3757 28.6053C26.6492 29.3336 25.7877 29.9135 24.8396 30.3124C24.7889 30.333 24.7332 30.337 24.6802 30.324C24.6273 30.311 24.5798 30.2814 24.5445 30.2399C24.5093 30.1982 24.488 30.1465 24.484 30.092C24.4799 30.0377 24.4931 29.9833 24.5218 29.9369C25.7835 27.8904 26.4633 25.5386 26.4879 23.1346C26.4879 23.0408 26.4692 22.948 26.4332 22.8613C26.3971 22.7746 26.3444 22.696 26.2779 22.6296L21.6037 17.6717C21.5571 17.6329 21.4985 17.6116 21.4378 17.6116C21.3773 17.6116 21.3186 17.6329 21.2721 17.6717C21.2255 17.7104 21.1942 17.7644 21.1833 17.824C21.1724 17.8837 21.1828 17.945 21.2127 17.9978C23.0281 21.283 21.467 26.0017 18.8637 28.6053L18.85 28.6191C18.4907 28.9745 18.0056 29.1738 17.5002 29.1736C16.9948 29.1734 16.5098 28.9738 16.1508 28.6182L16.1382 28.6053C13.5339 26.0017 11.9736 21.2835 13.7893 17.9985C13.8192 17.9457 13.8296 17.8844 13.8187 17.8247C13.8079 17.7651 13.7764 17.7111 13.7299 17.6724C13.6834 17.6336 13.6247 17.6123 13.5642 17.6123C13.5036 17.6123 13.4449 17.6336 13.3984 17.6724L8.7232 22.6298Z" fill="#F53838"/>
</svg>
